<svg width="28" height="28" viewBox="0 0 28 28" fill="none" xmlns="http://www.w3.org/2000/svg">
<path fill-rule="evenodd" clip-rule="evenodd" d="M17.6877 14.6878C18.2138 14.1498 18.683 13.5491 18.9732 12.9149L18.9732 12.9147C19.5744 11.5992 19.5587 9.80529 19.4224 8.41553C19.3528 7.70659 19.2486 7.07505 19.162 6.62081C19.1186 6.39339 19.0794 6.20965 19.0509 6.08197C19.0366 6.01811 19.025 5.96823 19.0169 5.93386L19.0073 5.89412L19.0047 5.88333L19.0039 5.88027L19.0037 5.87933L19.0036 5.87901C19.0036 5.87889 19.0036 5.87879 18.5185 5.99999L19.0036 5.87879C18.9479 5.65617 18.7479 5.49999 18.5185 5.49999H14.4275C14.4206 5.49984 14.4136 5.49984 14.4066 5.49999H9.48148C9.25202 5.49999 9.05201 5.65617 8.99639 5.87879L9.48148 5.99999C8.99639 5.87879 8.99636 5.87889 8.99633 5.87901L8.99625 5.87933L8.99602 5.88027L8.99526 5.88333L8.99262 5.89412L8.98307 5.93386C8.98033 5.94542 8.9772 5.95873 8.97371 5.97374L9.81834 6.81836C9.81898 6.81498 9.81962 6.81161 9.82026 6.80825C9.84231 6.6927 9.86316 6.58932 9.88183 6.49999H13.6077L12.3028 9.10984C12.2794 9.15653 12.2639 9.20586 12.256 9.25603L12.8334 9.83344H14.4411L13.9052 10.9052L14.6505 11.6506L15.6973 9.55705C15.7748 9.40206 15.7665 9.21799 15.6754 9.07058C15.5843 8.92317 15.4234 8.83344 15.2501 8.83344H13.559L14.7257 6.49999H18.1181C18.1368 6.58932 18.1576 6.6927 18.1797 6.80825C18.2623 7.2411 18.3613 7.84174 18.4271 8.51317C18.5616 9.88405 18.546 11.4435 18.0638 12.4989C17.8324 13.0046 17.4417 13.5083 16.9806 13.9806L17.6877 14.6878ZM14.8862 16.8862L14.1599 16.1599C14.1009 16.196 14.0474 16.2281 14 16.2563C13.9174 16.2072 13.8161 16.1459 13.6999 16.0734C13.3638 15.8637 12.9059 15.5619 12.4184 15.1943C11.4235 14.4439 10.383 13.4754 9.93625 12.4991C9.8211 12.2471 9.73256 11.9664 9.66631 11.6663L8.51489 10.5149C8.55859 11.3617 8.70348 12.2073 9.0267 12.9147L9.0268 12.9149C9.58433 14.1336 10.803 15.2285 11.8162 15.9927C12.3328 16.3823 12.8162 16.7007 13.1705 16.9218C13.2983 17.0015 13.4096 17.0688 13.5 17.1224V22.1673H10.6665C10.3904 22.1673 10.1665 22.3911 10.1665 22.6673C10.1665 22.9434 10.3904 23.1673 10.6665 23.1673H14H17.3334C17.6096 23.1673 17.8334 22.9434 17.8334 22.6673C17.8334 22.3911 17.6096 22.1673 17.3334 22.1673H14.5V17.1224C14.5904 17.0688 14.7017 17.0015 14.8295 16.9218C14.848 16.9102 14.867 16.8983 14.8862 16.8862Z" fill="#9399B9"/>
<line x1="5.70711" y1="5.29289" x2="23.7071" y2="23.2929" stroke="#9399B9" stroke-width="2"/>
<circle cx="14" cy="14" r="12.5" stroke="#9399B9" stroke-width="3"/>
</svg>
