<svg width="28" height="28" viewBox="0 0 28 28" fill="none" xmlns="http://www.w3.org/2000/svg">
<path d="M14.1337 8.23144C13.7433 8.23706 13.4064 8.45112 13.0303 8.74122C11.0244 10.2881 8.56031 12.4331 7.87106 13.9375C7.61188 13.5934 6.70894 13.6694 6.70894 14.1455C6.70894 14.5539 7.33722 14.667 7.69625 14.4922C7.67703 14.6276 7.68 14.7541 7.70703 14.8711C7.50806 14.9299 7.35453 15.0584 7.35453 15.2548C7.35453 15.6849 8.05109 15.7884 8.3965 15.5723C8.55759 15.6608 8.72246 15.7422 8.89062 15.8164C8.865 15.8637 8.85156 15.9176 8.85156 15.9775C8.85156 16.3405 9.34744 16.4702 9.71 16.3721C9.70544 16.3943 9.70312 16.4181 9.70312 16.4424C9.70312 17.0141 10.9346 17.009 10.9346 16.4424C10.9346 16.4378 10.9338 16.4332 10.9336 16.4287C11.3797 16.5142 11.8435 16.5781 12.3174 16.6211C12.4112 17.0686 13.3379 17.087 13.5127 16.6856C13.9824 16.6946 14.4553 16.6856 14.9238 16.6582C14.9196 16.6799 14.916 16.7029 14.916 16.7266C14.916 17.1694 15.6552 17.2657 15.9883 17.0234C16.3542 17.5666 17.7383 17.4641 17.7383 16.7305C17.7383 16.6585 17.7256 16.5927 17.7012 16.5332C18.0001 16.6739 18.4065 16.6965 18.7402 16.6006C18.8164 17.1165 19.9678 17.0927 19.9678 16.5449C19.9678 16.2502 19.6352 16.1128 19.3154 16.1259C19.3334 16.0698 19.3437 16.0093 19.3437 15.9444C19.3437 15.8866 19.3356 15.8328 19.3212 15.7822C19.4801 15.7199 19.633 15.6541 19.7793 15.5859C20.1618 15.4077 20.329 15.1194 20.332 14.7558C20.6924 14.9237 21.3105 14.8048 21.3105 14.4033C21.3105 13.9516 20.5273 13.8668 20.2099 14.1328C19.6302 12.5191 17.1086 10.103 15.1855 8.65819C14.7738 8.34881 14.4374 8.22706 14.1337 8.23144ZM20.9786 15.4531C20.6706 15.4545 20.3623 15.5962 20.3623 15.8741C20.3623 16.4457 21.5938 16.4406 21.5938 15.8741C21.5938 15.5907 21.2865 15.4518 20.9785 15.4531H20.9786ZM7.09281 15.8145C6.78488 15.8158 6.47656 15.9575 6.47656 16.2353C6.47656 16.8071 7.708 16.8019 7.708 16.2353C7.708 15.9521 7.40069 15.8132 7.09278 15.8145L7.09281 15.8145ZM8.51169 16.7031C8.177 16.7046 7.842 16.8537 7.81931 17.1455C7.494 17.1289 7.14744 17.2698 7.14744 17.5644C7.14744 18.1064 8.25381 18.13 8.36909 17.6484C8.75612 17.6981 9.20503 17.5408 9.20503 17.1777C9.20503 16.8588 8.85831 16.7016 8.51169 16.7031ZM11.2998 17.0283C11.0918 17.0292 10.8836 17.0939 10.7704 17.2217C10.3488 17.1329 9.80562 17.2928 9.80562 17.6934C9.80562 18.3002 10.9833 18.3551 11.2168 17.8721C11.5497 17.8993 11.915 17.758 11.915 17.4492C11.915 17.1659 11.6077 17.027 11.2998 17.0283H11.2998ZM14.0869 17.0791C13.779 17.0805 13.4707 17.2222 13.4707 17.5C13.4707 18.0717 14.7031 18.0666 14.7031 17.5C14.7031 17.2167 14.3948 17.0778 14.0869 17.0791ZM20.6689 17.2686C20.2642 17.2703 19.8594 17.457 19.8594 17.8223C19.8594 18.5737 21.4775 18.5669 21.4775 17.8223C21.4775 17.45 21.0737 17.2668 20.6689 17.2686ZM18.3193 17.4912C18.0114 17.4926 17.7031 17.6342 17.7031 17.9121C17.7031 18.4838 18.9355 18.4787 18.9355 17.9121C18.9355 17.6288 18.6272 17.4899 18.3193 17.4912L18.3193 17.4912ZM12.6543 17.9209C12.3012 17.9224 11.9482 18.0847 11.9482 18.4033C11.9482 18.7935 12.4484 18.9488 12.8535 18.874C13.0674 19.4585 14.4443 19.3997 14.4443 18.7128C14.4443 18.2373 13.7847 18.0717 13.3076 18.2041C13.1964 18.0133 12.9254 17.9197 12.6543 17.9209V17.9209ZM16.4619 18.1377C16.2678 18.1385 16.073 18.1952 15.9561 18.3066C15.5937 18.1522 14.9942 18.2741 14.9942 18.6621C14.9941 19.1277 15.811 19.2101 16.1143 18.919C16.4767 19.076 17.0772 18.9542 17.0772 18.5586C17.0772 18.2753 16.7698 18.1363 16.4618 18.1377L16.4619 18.1377ZM8.95125 18.2178C8.59812 18.2193 8.24419 18.3816 8.24419 18.7002C8.24419 19.3557 9.65731 19.3499 9.65731 18.7002C9.65731 18.3754 9.30431 18.2162 8.95125 18.2178V18.2178ZM19.4219 18.6503C19.0752 18.6519 18.7285 18.8111 18.7285 19.124C18.7285 19.7675 20.1152 19.7618 20.1152 19.124C20.1152 18.805 19.7685 18.6488 19.4219 18.6503V18.6503ZM10.9639 18.7079C10.6107 18.7095 10.2578 18.8717 10.2578 19.1904C10.2578 19.8459 11.6699 19.8401 11.6699 19.1904C11.6699 18.8655 11.3169 18.7064 10.9639 18.7079Z" fill="#F66735"/>
<circle cx="14" cy="14" r="12.5" stroke="#F66735" stroke-width="3"/>
</svg>
