<svg width="28" height="28" viewBox="0 0 28 28" fill="none" xmlns="http://www.w3.org/2000/svg">
<path fill-rule="evenodd" clip-rule="evenodd" d="M14.4274 5.49999H18.5184C18.7478 5.49999 18.9478 5.65617 19.0035 5.87879L18.5184 5.99999C19.0035 5.87879 19.0035 5.87889 19.0035 5.87901L19.0036 5.87933L19.0038 5.88027L19.0046 5.88333L19.0072 5.89412L19.0168 5.93386C19.0249 5.96823 19.0365 6.01811 19.0508 6.08197C19.0793 6.20965 19.1185 6.39339 19.1619 6.62081C19.2485 7.07505 19.3527 7.70659 19.4223 8.41553C19.5586 9.80529 19.5743 11.5992 18.9732 12.9147L18.9731 12.9149C18.4155 14.1336 17.1969 15.2285 16.1836 15.9927C15.667 16.3823 15.1836 16.7007 14.8294 16.9218C14.7016 17.0015 14.5903 17.0688 14.4999 17.1224V22.1673H17.3333C17.6095 22.1673 17.8333 22.3911 17.8333 22.6673C17.8333 22.9434 17.6095 23.1673 17.3333 23.1673H13.9999H10.6664C10.3903 23.1673 10.1664 22.9434 10.1664 22.6673C10.1664 22.3911 10.3903 22.1673 10.6664 22.1673H13.4999V17.1224C13.4095 17.0688 13.2982 17.0015 13.1704 16.9218C12.8161 16.7007 12.3327 16.3823 11.8161 15.9927C10.8029 15.2285 9.58423 14.1336 9.0267 12.9149L9.02661 12.9147C8.42548 11.5992 8.44116 9.80529 8.5775 8.41553C8.64705 7.70659 8.75121 7.07505 8.83789 6.62081C8.88129 6.39339 8.92045 6.20965 8.94896 6.08197C8.96322 6.01811 8.97482 5.96823 8.98298 5.93386L8.99252 5.89412L8.99516 5.88333L8.99592 5.88027L8.99616 5.87933L8.99624 5.87901C8.99627 5.87889 8.99629 5.87879 9.48138 5.99999L8.99629 5.87879C9.05191 5.65617 9.25192 5.49999 9.48138 5.49999H14.4066C14.4135 5.49984 14.4205 5.49984 14.4274 5.49999ZM13.5589 8.83344L14.7256 6.49999H18.118C18.1367 6.58932 18.1575 6.6927 18.1796 6.80825C18.2622 7.2411 18.3612 7.84174 18.427 8.51317C18.5615 9.88405 18.5459 11.4435 18.0637 12.4989C17.617 13.4753 16.5765 14.4438 15.5815 15.1943C15.094 15.5619 14.636 15.8637 14.3 16.0734C14.1838 16.1459 14.0825 16.2072 13.9999 16.2563C13.9173 16.2072 13.816 16.1459 13.6998 16.0734C13.3637 15.8637 12.9058 15.5619 12.4183 15.1943C11.4234 14.4439 10.3829 13.4754 9.93615 12.4991C9.4539 11.4437 9.43823 9.88414 9.57273 8.51317C9.6386 7.84174 9.73757 7.2411 9.82017 6.80825C9.84222 6.6927 9.86306 6.58932 9.88173 6.49999H13.6076L12.3027 9.10984C12.2252 9.26483 12.2335 9.4489 12.3246 9.59631C12.4157 9.74372 12.5766 9.83344 12.7499 9.83344H14.441L13.136 12.4433C13.0125 12.6903 13.1126 12.9906 13.3596 13.1141C13.6066 13.2376 13.907 13.1375 14.0305 12.8905L15.6972 9.55705C15.7747 9.40206 15.7664 9.21799 15.6753 9.07058C15.5842 8.92317 15.4233 8.83344 15.25 8.83344H13.5589Z" fill="#F66735"/>
<circle cx="14" cy="14" r="12.5" stroke="#F66735" stroke-width="3"/>
</svg>
