<svg width="28" height="26" viewBox="0 0 28 26" fill="none" xmlns="http://www.w3.org/2000/svg">
<path d="M13.9412 0.8125C11.045 0.8125 8.79375 0.8125 7.04125 1C5.26875 1.19125 3.865 1.5875 2.745 2.4825C1.595 3.4025 1.0575 4.59875 0.80375 6.1075C0.5625 7.5475 0.5625 9.38 0.5625 11.665V11.8937C0.5625 14.1212 0.5625 15.6625 0.8125 16.8112C0.9475 17.43 1.16 17.9675 1.49375 18.465C1.82375 18.955 2.24375 19.3675 2.745 19.7675C3.53375 20.3988 4.46375 20.78 5.5625 21.0175V24.25C5.56265 24.4142 5.60594 24.5756 5.68805 24.7178C5.77016 24.8601 5.88821 24.9783 6.03036 25.0605C6.17252 25.1428 6.3338 25.1863 6.49805 25.1867C6.6623 25.187 6.82375 25.1442 6.96625 25.0625C7.69875 24.6437 8.3475 24.1875 8.94125 23.7575L9.32125 23.4813C9.74406 23.1647 10.1759 22.8604 10.6163 22.5688C11.6713 21.8838 12.6788 21.4375 14 21.4375H14.0588C16.955 21.4375 19.2062 21.4375 20.9587 21.25C22.7312 21.0588 24.135 20.6625 25.255 19.7675C25.755 19.3675 26.1763 18.955 26.505 18.465C26.84 17.9675 27.0525 17.43 27.1875 16.8112C27.4375 15.6625 27.4375 14.1212 27.4375 11.8937V11.665C27.4375 9.38 27.4375 7.5475 27.1962 6.10875C26.9425 4.59875 26.405 3.4025 25.255 2.4825C24.135 1.58625 22.7312 1.19125 20.9587 1.00125C19.2062 0.8125 16.955 0.8125 14.0588 0.8125H13.9412Z" fill="#9399B9"/>
</svg>
