<svg width="77" height="42" viewBox="0 0 77 42" fill="none" xmlns="http://www.w3.org/2000/svg">
<path fill-rule="evenodd" clip-rule="evenodd" d="M47 35.5L52.8283 8.78683C52.9285 8.3275 53.3352 8 53.8053 8H64C65.8316 8.29723 66.6798 8.78498 68 10C73.8346 16.6893 75.8747 20.9762 76.8362 28.5773C76.9552 29.5187 76.9138 30.474 76.7441 31.4076L76.1493 34.6789C76.0628 35.1544 75.6487 35.5 75.1654 35.5H72C71.4477 35.5 71 35.0523 71 34.5V33C70.8333 31.3333 69.4 28 65 28C60.9376 28 57.5571 32.2622 56.2753 34.8838C56.0957 35.2512 55.7319 35.5 55.323 35.5H47ZM53.5541 19.2566L55.4652 10.6566C55.4855 10.5651 55.5667 10.5 55.6604 10.5H64.4335C64.4767 10.5 64.5173 10.5128 64.5516 10.5389C66.3345 11.8932 69.7759 15.6249 70.9234 19.2463C70.9635 19.3731 70.8675 19.5 70.7345 19.5H53.7493C53.6214 19.5 53.5263 19.3815 53.5541 19.2566Z" fill="#32357C"/>
<path d="M53.5 6L55 0C59.8 0.8 63 4.33333 64 6H53.5Z" fill="#32357C"/>
<path fill-rule="evenodd" clip-rule="evenodd" d="M62.5 42C65.8137 42 70 38.5 70 34C70 31 68.3137 29 65 29C61.6863 29 57 32 57 37C57 40.5899 59.1863 42 62.5 42ZM62.9615 39C64.7458 39 67 37.1154 67 34.6923C67 33.0769 66.092 32 64.3077 32C62.5234 32 60 33.6154 60 36.3077C60 38.2407 61.1772 39 62.9615 39Z" fill="#32357C"/>
<path fill-rule="evenodd" clip-rule="evenodd" d="M11.4859 0C9.15376 0 7.13132 1.61233 6.61165 3.88588L0.897366 28.8859C0.181845 32.0163 2.56052 35 5.77166 35H8.99985C10.1523 37.1482 10.3765 38.6105 9.49985 42C14.7525 39.5318 17.1701 38.0441 19.4999 35H32.0512C31.894 34.9219 31.7394 34.8452 31.5873 34.7697C28.7427 33.3585 26.795 32.3922 25.3073 30.8374C25.1069 30.628 24.8334 30.5 24.5435 30.5H6.2569C5.61382 30.5 5.13791 29.9018 5.28251 29.2751L10.821 5.27514C10.9257 4.82141 11.3297 4.5 11.7954 4.5H45.2475C45.8891 4.5 46.3647 5.09562 46.2227 5.7213L40.7766 29.7213C40.6732 30.1767 40.2684 30.5 39.8013 30.5H34.4882C33.9405 30.5 33.4887 30.9419 33.5183 31.4888C33.5955 32.9118 33.8967 33.7977 34.3854 35H43.4054C44.3383 35 45.1473 34.3551 45.3551 33.4456L52.944 0.244565C52.9726 0.119349 52.8774 0 52.749 0H11.4859Z" fill="#32357C"/>
<path d="M14.4432 8.22724C14.4766 8.09369 14.5966 8 14.7342 8H26.1158C26.3109 8 26.4541 8.18342 26.4068 8.37276L24.5568 15.7728C24.5234 15.9063 24.4034 16 24.2658 16H12.8842C12.6891 16 12.5459 15.8166 12.5932 15.6272L14.4432 8.22724Z" fill="#F66735"/>
<path d="M29.9432 8.22724C29.9766 8.09369 30.0966 8 30.2342 8H41.6158C41.8109 8 41.9541 8.18342 41.9068 8.37276L40.0568 15.7728C40.0234 15.9063 39.9034 16 39.7658 16H28.3842C28.1891 16 28.0459 15.8166 28.0932 15.6272L29.9432 8.22724Z" fill="#F66735"/>
<path d="M11.9432 19.2272C11.9766 19.0937 12.0966 19 12.2342 19H23.6158C23.8109 19 23.9541 19.1834 23.9068 19.3728L22.0568 26.7728C22.0234 26.9063 21.9034 27 21.7658 27H10.3842C10.1891 27 10.0459 26.8166 10.0932 26.6272L11.9432 19.2272Z" fill="#F66735"/>
<path d="M27.4432 19.2272C27.4766 19.0937 27.5966 19 27.7342 19H39.1158C39.3109 19 39.4541 19.1834 39.4068 19.3728L37.5568 26.7728C37.5234 26.9063 37.4034 27 37.2658 27H25.8842C25.6891 27 25.5459 26.8166 25.5932 26.6272L27.4432 19.2272Z" fill="#F66735"/>
</svg>
