<svg width="28" height="28" viewBox="0 0 28 28" fill="none" xmlns="http://www.w3.org/2000/svg">
<path fill-rule="evenodd" clip-rule="evenodd" d="M21.2354 18.2354C21.3811 18.1418 21.4775 18.004 21.4775 17.8223C21.4775 17.45 21.0737 17.2668 20.6689 17.2686C20.5487 17.2691 20.4285 17.2859 20.3189 17.3189L21.2354 18.2354ZM19.8276 16.8276C19.9134 16.7582 19.9678 16.6639 19.9678 16.5449C19.9678 16.2502 19.6352 16.1128 19.3154 16.1259C19.3334 16.0698 19.3437 16.0093 19.3437 15.9444C19.3437 15.8866 19.3356 15.8328 19.3212 15.7822C19.4801 15.7199 19.633 15.6541 19.7793 15.5859C20.1618 15.4077 20.329 15.1194 20.332 14.7558C20.6924 14.9237 21.3105 14.8048 21.3105 14.4033C21.3105 13.9516 20.5273 13.8668 20.2099 14.1328C19.6302 12.5191 17.1086 10.103 15.1855 8.65819C14.7738 8.34881 14.4374 8.22706 14.1337 8.23144C13.7433 8.23706 13.4064 8.45112 13.0303 8.74122C12.7949 8.92279 12.5531 9.1126 12.3086 9.30864L19.8276 16.8276ZM9.65327 11.6533C8.83836 12.4688 8.17834 13.2668 7.87106 13.9375C7.61188 13.5934 6.70894 13.6694 6.70894 14.1455C6.70894 14.5539 7.33722 14.667 7.69625 14.4922C7.67703 14.6276 7.68 14.7541 7.70703 14.8711C7.50806 14.9299 7.35453 15.0584 7.35453 15.2548C7.35453 15.6849 8.05109 15.7884 8.3965 15.5723C8.55759 15.6608 8.72246 15.7422 8.89062 15.8164C8.865 15.8637 8.85156 15.9176 8.85156 15.9775C8.85156 16.3405 9.34744 16.4702 9.71 16.3721C9.70544 16.3943 9.70312 16.4181 9.70312 16.4424C9.70312 17.0141 10.9346 17.009 10.9346 16.4424C10.9346 16.4378 10.9338 16.4332 10.9336 16.4287C11.3797 16.5142 11.8435 16.5781 12.3174 16.6211C12.4112 17.0686 13.3379 17.087 13.5127 16.6856C13.8981 16.693 14.2857 16.6882 14.6712 16.6712L9.65327 11.6533ZM16.1805 18.1805C16.0928 18.2088 16.0147 18.2508 15.9561 18.3066C15.5937 18.1522 14.9942 18.2741 14.9942 18.6621C14.9941 19.1277 15.811 19.2101 16.1143 18.919C16.3453 19.0191 16.6732 19.0058 16.8805 18.8805L16.1805 18.1805ZM20.3623 15.8741C20.3623 15.5962 20.6706 15.4545 20.9786 15.4531C21.2865 15.4518 21.5938 15.5908 21.5938 15.8741C21.5938 16.4406 20.3623 16.4457 20.3623 15.8741ZM6.47656 16.2353C6.47656 15.9575 6.78488 15.8158 7.09281 15.8145L7.09278 15.8145C7.40069 15.8132 7.708 15.9521 7.708 16.2353C7.708 16.8019 6.47656 16.8071 6.47656 16.2353ZM7.81931 17.1455C7.842 16.8537 8.177 16.7046 8.51169 16.7031C8.85831 16.7016 9.20503 16.8588 9.20503 17.1777C9.20503 17.5408 8.75612 17.6981 8.36909 17.6484C8.25381 18.13 7.14744 18.1064 7.14744 17.5644C7.14744 17.2698 7.494 17.1289 7.81931 17.1455ZM10.7704 17.2217C10.8836 17.0939 11.0918 17.0292 11.2998 17.0283H11.2998C11.6077 17.027 11.915 17.1659 11.915 17.4492C11.915 17.758 11.5497 17.8993 11.2168 17.8721C10.9833 18.3551 9.80562 18.3002 9.80562 17.6934C9.80562 17.2928 10.3488 17.1329 10.7704 17.2217ZM13.4707 17.5C13.4707 17.2222 13.779 17.0805 14.0869 17.0791C14.3948 17.0778 14.7031 17.2167 14.7031 17.5C14.7031 18.0666 13.4707 18.0717 13.4707 17.5ZM11.9482 18.4033C11.9482 18.0847 12.3012 17.9224 12.6543 17.9209V17.9209C12.9254 17.9197 13.1964 18.0133 13.3076 18.2041C13.7847 18.0717 14.4443 18.2373 14.4443 18.7128C14.4443 19.3997 13.0674 19.4585 12.8535 18.874C12.4484 18.9488 11.9482 18.7935 11.9482 18.4033ZM8.24419 18.7002C8.24419 18.3816 8.59812 18.2193 8.95125 18.2178V18.2178C9.30431 18.2162 9.65731 18.3754 9.65731 18.7002C9.65731 19.3499 8.24419 19.3557 8.24419 18.7002ZM10.2578 19.1904C10.2578 18.8717 10.6107 18.7095 10.9639 18.7079C11.3169 18.7064 11.6699 18.8655 11.6699 19.1904C11.6699 19.8401 10.2578 19.8459 10.2578 19.1904Z" fill="#9399B9"/>
<line x1="5.70711" y1="5.29289" x2="23.7071" y2="23.2929" stroke="#9399B9" stroke-width="2"/>
<circle cx="14" cy="14" r="12.5" stroke="#9399B9" stroke-width="3"/>
</svg>
