<svg width="20" height="20" viewBox="0 0 20 20" fill="none" xmlns="http://www.w3.org/2000/svg">
<path fill-rule="evenodd" clip-rule="evenodd" d="M4.5 5C5.52516 5 6.4062 4.38295 6.79198 3.5H15.25C16.7688 3.5 18 4.73122 18 6.25001C18 7.7688 16.7688 9.00003 15.25 9.00003H11.7325C11.3866 8.40221 10.7403 8 10 8C9.25971 8 8.61335 8.40221 8.26755 9.00003H4.5C2.01472 9.00003 0 11.0147 0 13.5C0 15.9853 2.01472 18 4.5 18H11.1337C10.9126 18.3825 10.9657 18.88 11.2929 19.2071C11.6834 19.5977 12.3166 19.5977 12.7071 19.2071L14.1266 17.7876C14.4566 18.7824 15.3945 19.5 16.5 19.5C17.8807 19.5 19 18.3807 19 17C19 15.6193 17.8807 14.5 16.5 14.5C15.3945 14.5 14.4565 15.2176 14.1266 16.2124L12.7071 14.7929C12.3166 14.4024 11.6834 14.4024 11.2929 14.7929C10.9657 15.1201 10.9126 15.6176 11.1337 16H4.5C3.11929 16 2 14.8807 2 13.5C2 12.1193 3.11929 11 4.5 11H8.26758C8.61339 11.5978 9.25973 12 10 12C10.7403 12 11.3866 11.5978 11.7324 11H15.25C17.8733 11 20 8.87337 20 6.25001C20 3.62665 17.8733 1.5 15.25 1.5H6.79198C6.4062 0.617048 5.52516 0 4.5 0C3.11929 0 2 1.11929 2 2.5C2 3.88071 3.11929 5 4.5 5ZM11 10C11 10.5523 10.5523 11 10 11C9.44772 11 9 10.5523 9 10C9 9.44772 9.44772 9 10 9C10.5523 9 11 9.44772 11 10Z" fill="#9399B9"/>
</svg>
