<svg width="24" height="25" viewBox="0 0 24 25" fill="none" xmlns="http://www.w3.org/2000/svg">
<path fill-rule="evenodd" clip-rule="evenodd" d="M12 2.5C17.523 2.5 22 6.977 22 12.5C22 18.023 17.523 22.5 12 22.5C6.477 22.5 2 18.023 2 12.5C2 6.977 6.477 2.5 12 2.5ZM4.205 14.31C4.55496 15.8124 5.33129 17.1817 6.44071 18.2536C7.55013 19.3254 8.94545 20.054 10.459 20.352C10.266 17.727 9.403 16.152 8.313 15.281C7.269 14.446 5.853 14.123 4.205 14.309V14.31ZM15.687 15.28C14.597 16.153 13.734 17.727 13.541 20.352C15.0547 20.054 16.4501 19.3252 17.5595 18.2531C18.669 17.1811 19.4452 15.8116 19.795 14.309C18.147 14.123 16.731 14.446 15.687 15.281V15.28ZM12 4.5C10.136 4.49967 8.33043 5.15023 6.89502 6.33935C5.4596 7.52847 4.48447 9.1815 4.138 11.013L4.095 11.261L6.305 10.819C6.887 10.703 7.44 10.396 8.058 9.979L8.535 9.647C9.332 9.081 10.513 8.5 12 8.5C13.388 8.5 14.509 9.006 15.3 9.534L15.942 9.979C16.482 10.344 16.974 10.624 17.478 10.767L17.695 10.819L19.905 11.261C19.6096 9.37675 18.6508 7.66003 17.2013 6.42036C15.7519 5.18069 13.9073 4.49964 12 4.5Z" fill="#9399B9"/>
</svg>
