<svg width="24" height="24" viewBox="0 0 24 24" fill="none" xmlns="http://www.w3.org/2000/svg">
<path d="M5.99992 19H17.9999L16.5749 9H7.42492L5.99992 19ZM11.9999 7C12.2833 7 12.5209 6.904 12.7129 6.712C12.9049 6.52 13.0006 6.28267 12.9999 6C12.9993 5.71733 12.9033 5.48 12.7119 5.288C12.5206 5.096 12.2833 5 11.9999 5C11.7166 5 11.4793 5.096 11.2879 5.288C11.0966 5.48 11.0006 5.71733 10.9999 6C10.9993 6.28267 11.0953 6.52033 11.2879 6.713C11.4806 6.90567 11.7179 7.00133 11.9999 7ZM14.8249 7H16.5749C17.0749 7 17.5083 7.16667 17.8749 7.5C18.2416 7.83333 18.4666 8.24167 18.5499 8.725L19.9749 18.725C20.0583 19.325 19.9043 19.8543 19.5129 20.313C19.1216 20.7717 18.6173 21.0007 17.9999 21H5.99992C5.38325 21 4.87892 20.771 4.48692 20.313C4.09492 19.855 3.94092 19.3257 4.02492 18.725L5.44992 8.725C5.53325 8.24167 5.75825 7.83333 6.12492 7.5C6.49159 7.16667 6.92492 7 7.42492 7H9.17492C9.12492 6.83333 9.08325 6.671 9.04992 6.513C9.01659 6.355 8.99992 6.184 8.99992 6C8.99992 5.16667 9.29159 4.45833 9.87492 3.875C10.4583 3.29167 11.1666 3 11.9999 3C12.8333 3 13.5416 3.29167 14.1249 3.875C14.7083 4.45833 14.9999 5.16667 14.9999 6C14.9999 6.18333 14.9833 6.35433 14.9499 6.513C14.9166 6.67167 14.8749 6.834 14.8249 7Z" fill="#9399B9"/>
</svg>
